PathFileType   4   (X/Y/Z)
DataRate  CameraRate  NumFrames  NumMarkers  Units  OrigDataRate  OrigDataStartFrame  OrigNumFrames  
  120.0      120.0        5         37         mm      120.0          51        134
Frame#      Time                    midhip                           hip_r                           hip_l                          knee_r                          knee_l                         ankle_r                         ankle_l                         midasis                          asis_r                          asis_l                          psis_r                          psis_l                    epicondLat_r                    epicondLat_l                    epicondMed_r                    epicondMed_l                  malleolusLat_r                  malleolusLat_l                 malleolusMedv_r                 malleolusMedv_l                    sternalnotch                  xyphoidprocess                            neck                           toe_r                           toe_l                     thighwand_r                     thighwand_l                     upperleg1_r                     upperleg1_l                     upperleg2_r                     upperleg2_l                     shankwand_r                     shankwand_l                     lowerleg1_r                     lowerleg1_l                   subclavicle_r                   subclavicle_l            
              X1          Y1          Z1          X2          Y2          Z2          X3          Y3          Z3          X4          Y4          Z4          X5          Y5          Z5          X6          Y6          Z6          X7          Y7          Z7          X8          Y8          Z8          X9          Y9          Z9          X10          Y10          Z10          X11          Y11          Z11          X12          Y12          Z12          X13          Y13          Z13          X14          Y14          Z14          X15          Y15          Z15          X16          Y16          Z16          X17          Y17          Z17          X18          Y18          Z18          X19          Y19          Z19          X20          Y20          Z20          X21          Y21          Z21          X22          Y22          Z22          X23          Y23          Z23          X24          Y24          Z24          X25          Y25          Z25          X26          Y26          Z26          X27          Y27          Z27          X28          Y28          Z28          X29          Y29          Z29          X30          Y30          Z30          X31          Y31          Z31          X32          Y32          Z32          X33          Y33          Z33          X34          Y34          Z34          X35          Y35          Z35          X36          Y36          Z36          X37          Y37          Z37          

	51	0.56667	1703.818	759.589	-259.469	1697.459	758.694	-202.401	1710.176	760.485	-316.536	1779.280	412.556	-180.343	1582.227	431.497	-292.075	1914.227	82.283	-182.828	1493.074	76.346	-264.734	1738.381	832.424	-255.248	1741.439	836.877	-145.649	1735.323	827.972	-364.848	1563.431	862.617	-214.992	1566.379	859.788	-267.847	1810.991	427.264	-120.477	1597.309	410.204	-348.981	1798.441	414.609	-238.546	1616.336	419.609	-233.544	1904.809	78.978	-146.681	1482.226	76.988	-299.579	1919.775	83.056	-216.530	1492.684	80.325	-231.067	1736.454	1183.488	-266.096	1745.431	1081.725	-268.519	1627.844	1253.741	-266.553	1997.509	88.932	-171.099	1575.960	46.628	-278.096	1871.865	594.832	-147.170	1736.465	538.946	-385.910	1805.696	610.860	-114.379	1733.272	587.968	-320.083	1815.354	553.719	-118.101	1713.276	534.060	-308.550	1981.889	236.671	-143.942	1500.917	169.692	-397.344	1918.505	199.666	-169.252	1507.764	165.233	-317.933	1735.602	1183.496	-210.247	1742.556	1184.007	-315.427
	52	0.57500	1710.642	758.931	-259.754	1704.453	757.956	-202.669	1716.832	759.907	-316.839	1785.973	411.698	-181.591	1586.564	431.381	-292.419	1924.530	82.334	-185.033	1493.490	77.367	-265.003	1745.301	831.690	-255.488	1748.687	835.996	-145.895	1741.915	827.383	-365.082	1570.488	861.972	-214.419	1572.747	859.138	-267.612	1818.272	426.536	-121.745	1601.668	410.010	-349.295	1804.828	413.844	-239.771	1621.282	419.559	-233.252	1915.249	78.878	-148.864	1482.721	78.110	-299.871	1929.728	83.548	-218.833	1493.032	81.213	-231.322	1743.103	1182.673	-265.707	1752.040	1080.904	-268.066	1634.411	1253.045	-266.383	2007.763	90.177	-173.236	1576.209	46.801	-278.233	1878.838	593.878	-148.431	1741.559	538.157	-386.693	1812.640	609.922	-115.338	1738.823	587.085	-320.733	1822.241	552.745	-119.176	1718.521	533.211	-308.961	1990.830	237.562	-146.051	1502.769	170.556	-397.694	1927.552	200.176	-171.185	1509.397	165.996	-318.046	1742.315	1182.721	-209.755	1749.149	1183.154	-315.147
	53	0.58333	1717.531	758.296	-260.014	1711.519	757.269	-202.911	1723.542	759.322	-317.117	1790.795	411.065	-182.819	1592.509	431.302	-292.745	1933.636	81.996	-187.290	1494.010	78.471	-265.328	1752.282	830.983	-255.765	1756.015	835.161	-146.168	1748.549	826.805	-365.362	1577.631	861.331	-213.852	1579.026	858.533	-267.381	1825.712	425.806	-123.015	1606.334	409.813	-349.634	1809.449	413.434	-241.929	1627.536	417.930	-235.477	1924.479	78.419	-151.101	1483.321	79.324	-300.217	1938.457	83.617	-221.178	1493.456	82.055	-231.607	1749.887	1181.804	-265.476	1758.855	1080.049	-268.279	1641.098	1252.222	-266.438	2016.773	90.804	-175.391	1576.495	47.017	-278.380	1885.986	593.075	-149.903	1746.781	537.382	-387.507	1819.952	608.901	-116.469	1744.433	586.644	-321.102	1828.901	551.304	-120.661	1724.409	532.896	-310.009	1999.186	237.712	-148.179	1504.769	171.450	-398.061	1935.932	200.200	-173.073	1511.105	166.534	-318.169	1749.233	1181.618	-209.201	1755.818	1182.493	-315.251
	54	0.59167	1724.527	757.646	-260.236	1718.704	756.583	-203.114	1730.349	758.709	-317.358	1800.881	410.280	-184.084	1598.269	431.372	-293.297	1941.573	81.243	-189.572	1494.658	79.660	-265.719	1759.337	830.284	-256.073	1763.433	834.348	-146.462	1755.242	826.220	-365.685	1584.860	860.666	-213.317	1585.292	857.973	-267.122	1833.286	425.061	-124.291	1611.356	409.604	-350.022	1818.643	413.284	-243.707	1634.742	417.275	-236.090	1932.513	77.574	-153.369	1484.048	80.630	-300.629	1946.190	82.968	-223.463	1493.757	83.151	-231.945	1756.696	1180.880	-265.044	1765.663	1079.138	-268.271	1647.902	1251.315	-265.888	2024.550	90.759	-177.572	1576.828	47.275	-278.545	1893.313	592.397	-151.580	1752.161	536.625	-388.336	1827.720	608.201	-117.540	1750.879	586.218	-322.095	1837.393	551.074	-122.050	1730.972	532.585	-311.087	2006.948	237.109	-150.275	1506.947	172.370	-398.462	1943.835	199.246	-174.839	1512.804	167.488	-318.299	1756.063	1180.459	-208.379	1762.610	1181.778	-315.212
	55	0.60000	1731.619	756.966	-260.491	1725.998	755.861	-203.349	1737.241	758.071	-317.632	1808.175	409.963	-185.367	1602.421	431.686	-293.878	1948.379	80.084	-191.851	1495.449	80.935	-266.184	1766.477	829.575	-256.408	1770.948	833.531	-146.769	1762.005	825.620	-366.046	1592.184	859.958	-212.820	1591.655	857.436	-266.789	1840.958	424.291	-125.579	1616.763	409.371	-350.474	1824.966	412.821	-244.424	1639.729	418.270	-235.217	1939.383	76.347	-155.639	1484.921	82.029	-301.116	1952.738	81.869	-225.749	1494.497	84.386	-232.428	1763.457	1179.981	-264.435	1772.442	1078.245	-267.827	1654.776	1250.299	-264.787	2031.130	90.034	-179.790	1577.215	47.577	-278.736	1900.816	591.800	-153.418	1757.740	535.889	-389.168	1835.859	607.794	-118.716	1757.259	585.209	-323.517	1845.353	550.930	-123.225	1736.721	531.683	-311.855	2014.119	235.779	-152.312	1509.322	173.323	-398.913	1950.904	197.815	-176.604	1515.128	168.852	-318.508	1762.685	1179.453	-207.474	1769.497	1180.974	-314.886
